<svg version="1.1" xmlns="http://www.w3.org/2000/svg" xmlns:xlink="http://www.w3.org/1999/xlink" width="24px" height="24px" viewBox="0,0,256,256"><g fill="#4f4f4f" fill-rule="nonzero" stroke="none" stroke-width="1" stroke-linecap="butt" stroke-linejoin="miter" stroke-miterlimit="10" stroke-dasharray="" stroke-dashoffset="0" font-family="none" font-weight="none" font-size="none" text-anchor="none" style="mix-blend-mode: normal"><g transform="translate(-2.66667,256) scale(0.26667,0.26667)"><path d="M160,-120v-640c0,-22 7.83333,-40.83333 23.5,-56.5c15.66667,-15.66667 34.5,-23.5 56.5,-23.5h240c22,0 40.83333,7.83333 56.5,23.5c15.66667,15.66667 23.5,34.5 23.5,56.5v280h40c22,0 40.83333,7.83333 56.5,23.5c15.66667,15.66667 23.5,34.5 23.5,56.5v180c0,11.33333 3.83333,20.83333 11.5,28.5c7.66667,7.66667 17.16667,11.5 28.5,11.5c11.33333,0 20.83333,-3.83333 28.5,-11.5c7.66667,-7.66667 11.5,-17.16667 11.5,-28.5v-288c-6,3.33333 -12.33333,5.5 -19,6.5c-6.66667,1 -13.66667,1.5 -21,1.5c-28,0 -51.66667,-9.66667 -71,-29c-19.33333,-19.33333 -29,-43 -29,-71c0,-21.33333 5.83333,-40.5 17.5,-57.5c11.66667,-17 27.16667,-29.16667 46.5,-36.5l-84,-84l42,-42l148,144c10,10 17.5,21.66667 22.5,35c5,13.33333 7.5,27 7.5,41v380c0,28 -9.66667,51.66667 -29,71c-19.33333,19.33333 -43,29 -71,29c-28,0 -51.66667,-9.66667 -71,-29c-19.33333,-19.33333 -29,-43 -29,-71v-200h-60v300zM240,-560h240v-200h-240zM720,-560c11.33333,0 20.83333,-3.83333 28.5,-11.5c7.66667,-7.66667 11.5,-17.16667 11.5,-28.5c0,-11.33333 -3.83333,-20.83333 -11.5,-28.5c-7.66667,-7.66667 -17.16667,-11.5 -28.5,-11.5c-11.33333,0 -20.83333,3.83333 -28.5,11.5c-7.66667,7.66667 -11.5,17.16667 -11.5,28.5c0,11.33333 3.83333,20.83333 11.5,28.5c7.66667,7.66667 17.16667,11.5 28.5,11.5zM240,-200h240v-280h-240zM480,-200h-240z"></path></g></g></svg>