<svg version="1.1" xmlns="http://www.w3.org/2000/svg" xmlns:xlink="http://www.w3.org/1999/xlink" width="24px" height="24px" viewBox="0,0,256,256"><g fill="#4f4f4f" fill-rule="nonzero" stroke="none" stroke-width="1" stroke-linecap="butt" stroke-linejoin="miter" stroke-miterlimit="10" stroke-dasharray="" stroke-dashoffset="0" font-family="none" font-weight="none" font-size="none" text-anchor="none" style="mix-blend-mode: normal"><g transform="translate(-0.26667,256) scale(0.26667,0.26667)"><path d="M841,-518v318c0,22 -7.83333,40.83333 -23.5,56.5c-15.66667,15.66667 -34.5,23.5 -56.5,23.5h-560c-22,0 -40.83333,-7.83333 -56.5,-23.5c-15.66667,-15.66667 -23.5,-34.5 -23.5,-56.5v-318c-15.33333,-14 -27.16667,-32 -35.5,-54c-8.33333,-22 -8.5,-46 -0.5,-72l42,-136c5.33333,-17.33333 14.83333,-31.66667 28.5,-43c13.66667,-11.33333 29.5,-17 47.5,-17h556c18,0 33.66667,5.5 47,16.5c13.33333,11 23,25.5 29,43.5l42,136c8,26 7.83333,49.66667 -0.5,71c-8.33333,21.33333 -20.16667,39.66667 -35.5,55zM569,-560c18,0 31.66667,-6.16667 41,-18.5c9.33333,-12.33333 13,-26.16667 11,-41.5l-22,-140h-78v148c0,14 4.66667,26.16667 14,36.5c9.33333,10.33333 20.66667,15.5 34,15.5zM389,-560c15.33333,0 27.83333,-5.16667 37.5,-15.5c9.66667,-10.33333 14.5,-22.5 14.5,-36.5v-148h-78l-22,140c-2.66667,16 0.83333,30 10.5,42c9.66667,12 22.16667,18 37.5,18zM211,-560c12,0 22.5,-4.33333 31.5,-13c9,-8.66667 14.5,-19.66667 16.5,-33l22,-154h-78l-40,134c-4,13.33333 -1.83333,27.66667 6.5,43c8.33333,15.33333 22.16667,23 41.5,23zM751,-560c19.33333,0 33.33333,-7.66667 42,-23c8.66667,-15.33333 10.66667,-29.66667 6,-43l-42,-134h-76l22,154c2,13.33333 7.5,24.33333 16.5,33c9,8.66667 19.5,13 31.5,13zM201,-200h560v-282c-3.33333,1.33333 -5.5,2 -6.5,2h-3.5c-18,0 -33.83333,-3 -47.5,-9c-13.66667,-6 -27.16667,-15.66667 -40.5,-29c-12,12 -25.66667,21.33333 -41,28c-15.33333,6.66667 -31.66667,10 -49,10c-18,0 -34.83333,-3.33333 -50.5,-10c-15.66667,-6.66667 -29.5,-16 -41.5,-28c-11.33333,12 -24.5,21.33333 -39.5,28c-15,6.66667 -31.16667,10 -48.5,10c-19.33333,0 -36.83333,-3.33333 -52.5,-10c-15.66667,-6.66667 -29.5,-16 -41.5,-28c-14,14 -27.83333,23.83333 -41.5,29.5c-13.66667,5.66667 -29.16667,8.5 -46.5,8.5h-4.5c-1.66667,0 -3.5,-0.66667 -5.5,-2zM761,-200h-560z"></path></g></g></svg>