<svg version="1.1" xmlns="http://www.w3.org/2000/svg" xmlns:xlink="http://www.w3.org/1999/xlink" width="24px" height="24px" viewBox="0,0,256,256"><g fill="#4f4f4f" fill-rule="nonzero" stroke="none" stroke-width="1" stroke-linecap="butt" stroke-linejoin="miter" stroke-miterlimit="10" stroke-dasharray="" stroke-dashoffset="0" font-family="none" font-weight="none" font-size="none" text-anchor="none" style="mix-blend-mode: normal"><g transform="translate(5.33333,256) scale(0.26667,0.26667)"><path d="M280,-80v-366c-34,-9.33333 -62.5,-28 -85.5,-56c-23,-28 -34.5,-60.66667 -34.5,-98v-280h80v280h40v-280h80v280h40v-280h80v280c0,37.33333 -11.5,70 -34.5,98c-23,28 -51.5,46.66667 -85.5,56v366zM680,-80v-320h-120v-280c0,-55.33333 19.5,-102.5 58.5,-141.5c39,-39 86.16667,-58.5 141.5,-58.5v800z"></path></g></g></svg>