<svg version="1.1" xmlns="http://www.w3.org/2000/svg" xmlns:xlink="http://www.w3.org/1999/xlink" width="24px" height="24px" viewBox="0,0,256,256"><g fill="#4f4f4f" fill-rule="nonzero" stroke="none" stroke-width="1" stroke-linecap="butt" stroke-linejoin="miter" stroke-miterlimit="10" stroke-dasharray="" stroke-dashoffset="0" font-family="none" font-weight="none" font-size="none" text-anchor="none" style="mix-blend-mode: normal"><g transform="translate(-0.0016,0.0016)"><g><g transform="translate(0,256) scale(0.26667,0.26667)"><path d="M80,-200v-240c0,-18 3.66667,-34.33333 11,-49c7.33333,-14.66667 17,-27.66667 29,-39v-112c0,-33.33333 11.66667,-61.66667 35,-85c23.33333,-23.33333 51.66667,-35 85,-35h160c15.33333,0 29.66667,2.83333 43,8.5c13.33333,5.66667 25.66667,13.5 37,23.5c11.33333,-10 23.66667,-17.83333 37,-23.5c13.33333,-5.66667 27.66667,-8.5 43,-8.5h160c33.33333,0 61.66667,11.66667 85,35c23.33333,23.33333 35,51.66667 35,85v112c12,11.33333 21.66667,24.33333 29,39c7.33333,14.66667 11,31 11,49v240h-80v-80h-640v80zM520,-560h240v-80c0,-11.33333 -3.83333,-20.83333 -11.5,-28.5c-7.66667,-7.66667 -17.16667,-11.5 -28.5,-11.5h-160c-11.33333,0 -20.83333,3.83333 -28.5,11.5c-7.66667,7.66667 -11.5,17.16667 -11.5,28.5zM200,-560h240v-80c0,-11.33333 -3.83333,-20.83333 -11.5,-28.5c-7.66667,-7.66667 -17.16667,-11.5 -28.5,-11.5h-160c-11.33333,0 -20.83333,3.83333 -28.5,11.5c-7.66667,7.66667 -11.5,17.16667 -11.5,28.5zM160,-360h640v-80c0,-11.33333 -3.83333,-20.83333 -11.5,-28.5c-7.66667,-7.66667 -17.16667,-11.5 -28.5,-11.5h-560c-11.33333,0 -20.83333,3.83333 -28.5,11.5c-7.66667,7.66667 -11.5,17.16667 -11.5,28.5zM800,-360h-640z"></path></g></g></g></g></svg>